<svg class="SVGInline-svg" style="width: 100%;height: 100%;" viewBox="0 0 138 138" fill="none"
    xmlns="http://www.w3.org/2000/svg">
    <mask id="a" maskUnits="userSpaceOnUse" x="0" y="0" width="138" height="138">
        <circle cx="69" cy="69" r="69" fill="#C4C4C4" />
    </mask>
    <g mask="url(#a)">
        <path fill="url(#paint0_linear)" d="M0 0h138v138H0z" />
        <circle cx="69" cy="69" r="69" fill="#7545E2" />
        <mask id="b" maskUnits="userSpaceOnUse" x="9" y="9" width="120" height="120">
            <path
                d="M128.8 69c0 33.027-26.773 59.8-59.8 59.8-33.026 0-59.8-26.773-59.8-59.8S35.974 9.2 69 9.2c33.027 0 59.8 26.773 59.8 59.8z"
                fill="#C4C4C4" />
        </mask>
        <g mask="url(#b)">
            <g filter="url(#filter0_f)">
                <path
                    d="M54.331 92.876c-16.24 11.328-23.05 6.694-27.766 19.052L21.85 129.95h94.3l-6.287-18.022s.524-7.724-9.954-10.814c-10.477-3.09-16.24-8.238-16.24-8.238-.524-3.09-3.052-4.12-3.052-6.694v-5.664s3.052-1.545 4.1-8.754c2.095-.515 2.367-2.575 3.143-6.18.976-4.53 2.096-5.663 0-6.693 1.048-5.15 3.143-16.477-3.667-22.142-6.81-5.664-19.908-9.317-30.386 0-5.96 5.3-5.239 12.358-3.667 22.142-2.096 1.282-1.068 2.727 0 6.18 1.822 5.89.866 6.178 3.143 6.693.911 6.694 4.191 8.754 4.191 8.754v5.664c0 2.574-2.619 3.604-3.143 6.694z"
                    fill="url(#paint1_linear)" fill-opacity=".5" />
            </g>
            <path
                d="M52.9 93.15c-17.825 12.65-25.3 7.475-30.475 21.275L17.25 134.55h103.5l-6.9-20.125s.575-8.625-10.925-12.075c-11.5-3.45-17.825-9.2-17.825-9.2-.575-3.45-3.35-4.6-3.35-7.475V79.35s3.35-1.725 4.5-9.775c2.3-.575 2.598-2.875 3.45-6.9 1.071-5.06 2.3-6.325 0-7.475 1.15-5.75 3.45-18.4-4.025-24.725-7.475-6.325-21.85-10.405-33.35 0-6.542 5.919-5.75 13.8-4.025 24.725-2.3 1.431-1.172 3.045 0 6.9 2 6.578.95 6.9 3.45 7.475 1 7.475 4.6 9.775 4.6 9.775v6.325c0 2.875-2.875 4.025-3.45 7.475z"
                fill="url(#paint2_linear)" />
        </g>
        <path fill-rule="evenodd" clip-rule="evenodd"
            d="M69 138c38.108 0 69-30.892 69-69 0-38.108-30.892-69-69-69C30.892 0 0 30.892 0 69c0 38.108 30.892 69 69 69zm0-9.2c33.027 0 59.8-26.773 59.8-59.8S102.027 9.2 69 9.2 9.2 35.973 9.2 69s26.773 59.8 59.8 59.8z"
            fill="url(#paint3_linear)" />
    </g>
    <defs>
        <linearGradient id="paint0_linear" x1="69" y1="0" x2="69" y2="138"
            gradientUnits="userSpaceOnUse">
            <stop stop-color="#373741" />
            <stop offset="1" stop-color="#27272E" />
        </linearGradient>
        <linearGradient id="paint1_linear" x1="69" y1="129.497" x2="69" y2="28.002"
            gradientUnits="userSpaceOnUse">
            <stop stop-color="#1C1C21" />
            <stop offset="1" stop-color="#27272F" />
        </linearGradient>
        <linearGradient id="paint2_linear" x1="69" y1="134.044" x2="69" y2="20.707"
            gradientUnits="userSpaceOnUse">
            <stop stop-color="#1C1C21" />
            <stop offset="1" stop-color="#27272F" />
        </linearGradient>
        <linearGradient id="paint3_linear" x1="69" y1="135.7" x2="69" y2="0"
            gradientUnits="userSpaceOnUse">
            <stop stop-color="#27272E" />
            <stop offset="1" stop-color="#373741" />
        </linearGradient>
        <filter id="filter0_f" x="17.85" y="27.05" width="102.3" height="106.9"
            filterUnits="userSpaceOnUse" color-interpolation-filters="sRGB">
            <feFlood flood-opacity="0" result="BackgroundImageFix" />
            <feBlend in="SourceGraphic" in2="BackgroundImageFix" result="shape" />
            <feGaussianBlur stdDeviation="2" result="effect1_foregroundBlur" />
        </filter>
    </defs>
</svg>